<svg width="310" height="65" viewBox="0 0 310 65" fill="none" xmlns="http://www.w3.org/2000/svg">
<g clip-path="url(#clip0_433_1920)">
<path d="M100.986 20.7162C99.9602 20.7162 99.0717 20.9874 98.3881 21.53C97.7046 22.0726 97.3628 22.8186 97.3628 23.7681C97.3628 24.7176 97.6362 25.4636 98.1147 26.0062C98.5932 26.5487 99.2767 26.9556 100.029 27.2269C100.849 27.4982 101.669 27.7695 102.626 27.973C103.583 28.1764 104.54 28.4477 105.497 28.7868C106.454 29.1259 107.342 29.5328 108.094 30.0076C108.915 30.4823 109.53 31.1605 110.008 32.0422C110.487 32.9239 110.76 34.0768 110.76 35.3654C110.76 37.4678 109.872 39.299 108.163 40.8589C106.454 42.4187 104.198 43.1648 101.327 43.1648C98.5248 43.1648 96.2008 42.4866 94.4236 41.198C92.6464 39.8416 91.8262 38.0104 91.8262 35.6367H97.4312C97.6362 37.9426 98.9349 39.0277 101.396 39.0277C102.626 39.0277 103.515 38.6886 104.267 38.0782C104.95 37.4678 105.292 36.654 105.292 35.6367C105.292 34.6194 104.813 33.8055 103.925 33.1951C102.968 32.5848 101.874 32.1778 100.575 31.8387C99.2767 31.5674 97.978 31.1605 96.6109 30.7536C95.3122 30.3467 94.1502 29.6006 93.2616 28.5155C92.3047 27.4304 91.8945 26.074 91.8945 24.3106C91.8945 21.9369 92.7831 20.1058 94.492 18.6815C96.2008 17.2573 98.4565 16.5791 101.122 16.5791C103.856 16.5791 106.044 17.1895 107.684 18.4103C109.325 19.631 110.213 21.53 110.35 23.9715H104.608C104.54 22.9542 104.13 22.2082 103.515 21.5978C102.899 21.0553 102.011 20.7162 100.986 20.7162Z" fill="#101828"/>
<path d="M123.952 38.4851H126.481V42.8934H123.132C121.013 42.8934 119.373 42.4187 118.211 41.4692C117.049 40.5197 116.502 38.892 116.502 36.654V26.5487H114.314V22.276H116.502V17.1895H121.765V22.276H126.413V26.5487H121.765V36.654C121.765 37.3322 121.902 37.8069 122.243 38.0782C122.585 38.3495 123.132 38.4851 123.952 38.4851Z" fill="#101828"/>
<path d="M132.223 40.2486C130.173 38.2818 129.216 35.7046 129.216 32.5849C129.216 29.3973 130.241 26.888 132.292 24.9212C134.342 22.9544 136.871 22.0049 139.947 22.0049C143.023 22.0049 145.552 22.9544 147.603 24.9212C149.654 26.888 150.679 29.3973 150.679 32.5849C150.679 35.7725 149.654 38.3496 147.603 40.2486C145.552 42.2154 142.955 43.1649 139.947 43.1649C136.735 43.1649 134.206 42.1476 132.223 40.2486ZM139.811 38.7566C141.314 38.7566 142.545 38.214 143.638 37.1289C144.732 36.0437 145.211 34.5517 145.211 32.5849C145.211 30.6181 144.664 29.126 143.638 28.0409C142.613 26.9558 141.314 26.4132 139.811 26.4132C138.307 26.4132 137.076 26.9558 136.051 28.0409C135.026 29.126 134.547 30.6181 134.547 32.5849C134.547 34.5517 135.026 36.1116 136.051 37.1289C137.076 38.214 138.307 38.7566 139.811 38.7566Z" fill="#101828"/>
<path d="M160.043 22.2759V25.9382C161.411 23.2932 163.461 22.0046 166.127 22.0046V27.3625H164.828C163.256 27.3625 162.094 27.7694 161.274 28.5154C160.454 29.3293 160.043 30.6179 160.043 32.5168V42.8255H154.78V22.2759H160.043Z" fill="#101828"/>
<path d="M178.635 43.1649C175.627 43.1649 173.167 42.2154 171.253 40.2486C169.339 38.2818 168.382 35.7046 168.382 32.5171C168.382 29.3295 169.339 26.7523 171.253 24.8533C173.167 22.9544 175.627 22.0049 178.703 22.0049C181.779 22.0049 184.24 22.9544 186.154 24.7855C188.136 26.6845 189.093 29.126 189.093 32.2458C189.093 32.9918 189.025 33.6022 188.956 34.2804H173.85C173.987 35.6368 174.465 36.7219 175.354 37.5358C176.243 38.3496 177.336 38.7566 178.703 38.7566C180.549 38.7566 181.847 38.0105 182.736 36.5185H188.409C187.794 38.4853 186.632 40.0452 184.923 41.3337C183.146 42.5545 181.096 43.1649 178.635 43.1649ZM182.053 27.634C181.096 26.8201 180.002 26.4132 178.635 26.4132C177.336 26.4132 176.174 26.8201 175.286 27.634C174.397 28.4478 173.85 29.533 173.713 30.8894H183.556C183.556 29.533 183.01 28.4478 182.053 27.634Z" fill="#101828"/>
<path d="M206.387 17.1895V19.3597H195.86V28.9224H205.293V31.0248H195.86V40.791H206.387V42.8934H193.263V17.1895H206.387Z" fill="#101828"/>
<path d="M214.11 22.5474V25.8706C215.477 23.429 217.733 22.2083 220.877 22.2083C223.133 22.2083 225.047 22.9543 226.55 24.4463C228.054 25.9384 228.806 28.0408 228.806 30.8215V42.8935H226.209V31.2962C226.209 29.0581 225.662 27.3626 224.568 26.2097C223.475 25.0567 221.971 24.4463 220.125 24.4463C218.211 24.4463 216.776 25.0567 215.682 26.2097C214.589 27.3626 214.042 29.0581 214.042 31.2962V42.8935H211.444V22.5474H214.11Z" fill="#101828"/>
<path d="M235.779 40.2485C233.934 38.2139 232.977 35.7045 232.977 32.5848C232.977 29.4651 233.934 26.9557 235.779 25.0567C237.625 23.1577 240.017 22.2083 242.888 22.2083C244.733 22.2083 246.374 22.683 247.741 23.5647C249.108 24.4463 250.202 25.5993 250.817 27.0235V22.6152H253.414V43.6396C253.414 46.4202 252.526 48.5904 250.68 50.3538C248.835 52.0493 246.579 52.931 243.981 52.931C241.316 52.931 239.128 52.2528 237.283 50.9642C235.437 49.6756 234.412 48.0479 234.139 46.1489H236.736C237.078 47.4375 237.898 48.4548 239.197 49.3365C240.495 50.2181 242.136 50.6251 244.05 50.6251C245.964 50.6251 247.604 50.0147 248.903 48.7261C250.202 47.5053 250.885 45.742 250.885 43.5717V38.4174C250.202 39.8416 249.176 40.9945 247.809 41.8762C246.442 42.7579 244.802 43.2326 242.956 43.2326C240.017 43.2326 237.693 42.2153 235.779 40.2485ZM248.63 38.6886C250.133 37.1966 250.885 35.162 250.885 32.6526C250.885 30.1433 250.133 28.1765 248.63 26.6166C247.126 25.1245 245.349 24.3107 243.23 24.3107C241.111 24.3107 239.333 25.0567 237.898 26.4809C236.394 27.973 235.711 29.9398 235.711 32.3813C235.711 34.8907 236.463 36.9253 237.966 38.4852C239.47 40.0451 241.247 40.8589 243.298 40.8589C245.349 40.9945 247.126 40.2485 248.63 38.6886Z" fill="#101828"/>
<path d="M262.368 16.8504C262.368 17.393 262.163 17.8677 261.821 18.2068C261.479 18.5459 261.001 18.7494 260.454 18.7494C259.907 18.7494 259.429 18.5459 259.087 18.2068C258.745 17.8677 258.54 17.393 258.54 16.8504C258.54 16.3078 258.745 15.8331 259.087 15.494C259.429 15.1549 259.907 14.9514 260.454 14.9514C261.001 14.9514 261.411 15.1549 261.821 15.494C262.163 15.8331 262.368 16.3078 262.368 16.8504ZM259.087 42.8935V22.5473H261.684V42.8257H259.087V42.8935Z" fill="#101828"/>
<path d="M269.956 22.5474V25.8706C271.323 23.429 273.579 22.2083 276.723 22.2083C278.978 22.2083 280.892 22.9543 282.396 24.4463C283.9 25.9384 284.652 28.0408 284.652 30.8215V42.8935H282.054V31.2962C282.054 29.0581 281.508 27.3626 280.414 26.2097C279.32 25.0567 277.816 24.4463 275.971 24.4463C274.057 24.4463 272.622 25.0567 271.528 26.2097C270.434 27.3626 269.887 29.0581 269.887 31.2962V42.8935H267.29V22.5474H269.956Z" fill="#101828"/>
<path d="M298.733 43.2326C295.793 43.2326 293.469 42.2831 291.624 40.3163C289.778 38.3495 288.89 35.8402 288.89 32.6526C288.89 29.4651 289.847 26.9557 291.692 25.0567C293.538 23.1577 295.93 22.2083 298.938 22.2083C301.945 22.2083 304.269 23.0899 305.978 24.9211C307.755 26.7522 308.575 28.9903 308.575 31.6353C308.575 32.3813 308.507 32.9917 308.439 33.6699H291.555C291.624 35.9758 292.376 37.807 293.674 39.1634C294.973 40.5198 296.682 41.198 298.664 41.198C300.236 41.198 301.603 40.8589 302.697 40.1129C303.791 39.3669 304.543 38.4852 305.021 37.2644H307.824C307.14 39.0278 306.046 40.452 304.543 41.5371C303.039 42.6901 301.057 43.2326 298.733 43.2326ZM305.841 31.5675C305.841 29.3294 305.158 27.5661 303.791 26.2097C302.424 24.8533 300.715 24.2429 298.733 24.2429C296.75 24.2429 295.041 24.9211 293.743 26.2097C292.376 27.4983 291.692 29.3294 291.555 31.5675H305.841Z" fill="#101828"/>
<path d="M25.9296 1.07471C24.935 2.75283 24.7418 2.99557 24.0841 3.85535C19.7778 9.48446 16.9069 15.7239 17.7272 23.1842C18.0006 25.5579 19.0943 27.8638 20.5297 29.7628C25.2461 36.1379 32.0131 39.0542 38.8484 41.767C41.3775 42.7843 43.975 43.5982 46.504 44.6833C48.4863 45.4972 50.3318 46.7179 51.904 48.3456C55.0482 51.7367 54.7065 55.7381 51.0154 58.4509C47.5977 60.8924 43.8382 61.2315 39.8737 60.689C37.8915 60.4177 35.9776 59.7395 34.0637 58.9935C29.9625 57.3658 25.7929 56.6876 21.4183 57.637C17.8639 58.3831 14.9247 60.2142 12.5323 62.9949C11.4387 64.2835 10.9602 64.6904 9.79817 62.8592C8.29439 60.4855 6.44885 58.3831 5.01342 55.8059C3.30458 52.6183 2.14257 49.2273 1.45904 45.7006C0.0236103 38.1726 0.502086 30.7123 3.09952 23.5233C5.97037 15.5205 10.8918 9.28099 17.7955 4.87266C20.3246 3.24497 22.9904 2.02419 25.9296 1.07471Z" fill="#008DFF"/>
<path d="M69.4025 49.5663C68.9924 48.0064 68.7873 46.7856 68.4456 45.6327C65.6431 35.5952 58.9444 29.8983 49.7851 27.0499C45.9573 25.8291 42.0611 25.49 38.37 23.6588C35.6359 22.3024 34.5491 17.8906 35.6359 15.2491C37.4131 11.7224 40.0788 9.61998 43.9066 9.28087C49.3066 8.80613 54.4331 9.68779 59.1495 12.6041C67.2152 17.6906 72.2734 26.0326 71.7949 37.4942C71.6582 41.4956 70.9747 45.3614 69.4025 49.5663Z" fill="#FF5000"/>
</g>
<defs>
<clipPath id="clip0_433_1920">
<rect width="310" height="64" fill="white" transform="translate(0 0.941162)"/>
</clipPath>
</defs>
</svg>
