<svg width="178" height="32" viewBox="0 0 178 32" fill="none" xmlns="http://www.w3.org/2000/svg" role="img" aria-label="StoreEngine">
  <rect width="32" height="32" rx="7" fill="#008DFF"/>
  <path d="M20.6 10.4c-1-1-2.5-1.6-4.6-1.6-3.3 0-5.4 1.6-5.4 4 0 2.1 1.5 3.2 4.4 3.8l1.6.3c1.5.3 2 .7 2 1.4 0 .8-.8 1.3-2.2 1.3-1.5 0-2.6-.5-3.4-1.5l-2.4 2.1c1.1 1.4 3 2.3 5.6 2.3 3.5 0 5.7-1.6 5.7-4.2 0-2.2-1.4-3.3-4.4-3.9l-1.6-.3c-1.4-.3-2-.6-2-1.3 0-.8.7-1.2 2-1.2 1.3 0 2.3.4 3 1.2l2.1-1.9Z" fill="#fff"/>
  <text x="43" y="22" font-family="-apple-system, BlinkMacSystemFont, 'Segoe UI', Roboto, Helvetica, Arial, sans-serif" font-size="19" font-weight="700" fill="#1c1e21">StoreEngine</text>
</svg>
