<svg width="1200" height="630" viewBox="0 0 1200 630" fill="none" xmlns="http://www.w3.org/2000/svg">
  <rect width="1200" height="630" fill="#0F0E16"/>
  <rect width="1200" height="630" fill="url(#g)" opacity="0.15"/>
  <defs>
    <linearGradient id="g" x1="0" y1="0" x2="1200" y2="630" gradientUnits="userSpaceOnUse">
      <stop stop-color="#008DFF"/>
      <stop offset="1" stop-color="#0063B3"/>
    </linearGradient>
  </defs>
  <rect x="80" y="80" width="88" height="88" rx="20" fill="#008DFF"/>
  <path d="M132 118c-2.7-2.6-6.6-4.2-12-4.2-8.7 0-14.2 4.2-14.2 10.5 0 5.5 3.9 8.4 11.5 10l4.2.8c3.9.8 5.3 1.8 5.3 3.7 0 2.1-2.1 3.4-5.8 3.4-3.9 0-6.8-1.3-8.9-3.9l-6.3 5.5c2.9 3.7 7.9 6 14.7 6 9.2 0 15-4.2 15-11 0-5.8-3.7-8.7-11.5-10.2l-4.2-.8c-3.7-.8-5.3-1.6-5.3-3.4 0-2.1 1.8-3.2 5.3-3.2 3.4 0 6 1.1 7.9 3.2l5.5-5Z" fill="#fff" transform="translate(-20 -10) scale(1.15)"/>
  <text x="80" y="360" font-family="Arial, sans-serif" font-size="76" font-weight="800" fill="#ffffff">StoreEngine</text>
  <text x="80" y="440" font-family="Arial, sans-serif" font-size="46" font-weight="700" fill="#4DAFFF">Developer Documentation</text>
  <text x="80" y="530" font-family="Arial, sans-serif" font-size="30" fill="#B8B8C0">Addons · REST API · Hooks · Data Objects · Payment Gateways</text>
</svg>
